<?xml version="1.0" encoding="utf-8"?>
<!-- Generator: Adobe Illustrator 27.9.5, SVG Export Plug-In . SVG Version: 9.03 Build 54986)  -->
<svg version="1.1" id="_x30_7_x5F_add" xmlns="http://www.w3.org/2000/svg" xmlns:xlink="http://www.w3.org/1999/xlink" x="0px"
	 y="0px" viewBox="0 0 64 64" enable-background="new 0 0 64 64" xml:space="preserve">
<g>
	<rect x="9.8" y="39.6" fill="#FFFFFF" width="22.1" height="13.2"/>
	<g>
		<path fill="#9F9F9F" d="M31.5,42h-22c-0.8,0-1.5-0.7-1.5-1.5S8.7,39,9.6,39h22c0.8,0,1.5,0.7,1.5,1.5S32.4,42,31.5,42z"/>
	</g>
	<linearGradient id="SVGID_1_" gradientUnits="userSpaceOnUse" x1="44.6191" y1="23.0037" x2="44.6191" y2="39.0148">
		<stop  offset="0" style="stop-color:#C5E5F7"/>
		<stop  offset="1" style="stop-color:#8BCEF0"/>
	</linearGradient>
	<rect x="32.2" y="23" fill="url(#SVGID_1_)" width="24.7" height="16"/>
	
		<line fill="none" stroke="#9F9F9F" stroke-width="3" stroke-linecap="round" stroke-linejoin="round" stroke-miterlimit="10" x1="53.1" y1="24.5" x2="53.1" y2="38.1"/>
	<rect x="9.8" y="9.9" fill="#FFFFFF" width="22.1" height="13.2"/>
	<g>
		<path fill="#9F9F9F" d="M31.5,55.8c-0.8,0-1.5-0.7-1.5-1.5V9.7c0-0.8,0.7-1.5,1.5-1.5S33,8.9,33,9.7v44.6
			C33,55.1,32.3,55.8,31.5,55.8z"/>
	</g>
	<path fill="none" stroke="#9F9F9F" stroke-width="3" stroke-linecap="round" stroke-miterlimit="10" d="M31.4,52"/>
	<path fill="none" stroke="#9F9F9F" stroke-width="3" stroke-linecap="round" stroke-miterlimit="10" d="M31.4,38.9"/>
	<g>
		<path fill="#4D4E4F" d="M57.5,42H32.4c-0.8,0-1.4-0.7-1.4-1.5s0.6-1.5,1.4-1.5h25.1c0.8,0,1.4,0.7,1.4,1.5S58.3,42,57.5,42z"/>
	</g>
	<g>
		<path fill="#9F9F9F" d="M31.5,25h-22c-0.8,0-1.5-0.7-1.5-1.5S8.7,22,9.6,22h22c0.8,0,1.5,0.7,1.5,1.5S32.4,25,31.5,25z"/>
	</g>
	<g>
		<path fill="#4D4E4F" d="M57.5,25H32.4c-0.8,0-1.4-0.7-1.4-1.5s0.6-1.5,1.4-1.5h25.1c0.8,0,1.4,0.7,1.4,1.5S58.3,25,57.5,25z"/>
	</g>
	
		<polyline fill="none" stroke="#82ADD2" stroke-width="3" stroke-linecap="round" stroke-linejoin="round" stroke-miterlimit="10" points="
		44.5,9.5 9.5,9.5 9.5,23.5 	"/>
	
		<polyline fill="none" stroke="#1B4582" stroke-width="3" stroke-linecap="round" stroke-linejoin="round" stroke-miterlimit="10" points="
		44.5,54.5 9.5,54.5 9.5,40.5 	"/>
	<g>
		<rect x="30" y="22" fill="#8B74AD" width="3" height="20"/>
	</g>
	<g>
		<path fill="#47428C" stroke="#47428C" stroke-miterlimit="10" d="M21.3,26L21.3,26c0.4,0.4,0.5,1.1,0,1.6l-2,2c0,0,0,0-0.1,0.1
			L17.7,31l0,0.1l3.1-0.2c0,0,0,0,0.1,0h9.5c0.6,0,1.1,0.5,1.1,1.1v0c0,0.6-0.5,1.1-1.1,1.1h-9.5c0,0,0,0-0.1,0l-3.1-0.2l0,0.1
			l1.6,1.3c0,0,0,0,0.1,0.1l2,2c0.4,0.4,0.4,1.1,0,1.6l0,0c-0.4,0.4-1.1,0.4-1.6,0l-5.2-5.2c-0.4-0.4-0.4-1.1,0-1.6l5.2-5.2
			C20.2,25.6,20.9,25.6,21.3,26z"/>
	</g>
	
		<line fill="none" stroke="#DA3945" stroke-width="3" stroke-linecap="round" stroke-linejoin="round" stroke-miterlimit="10" x1="6.5" y1="11.5" x2="6.5" y2="21.4"/>
</g>
</svg>
