<?xml version="1.0" encoding="utf-8"?>
<!-- Generator: Adobe Illustrator 27.9.5, SVG Export Plug-In . SVG Version: 9.03 Build 54986)  -->
<svg version="1.1" id="_x31_7_x5F_o" xmlns="http://www.w3.org/2000/svg" xmlns:xlink="http://www.w3.org/1999/xlink" x="0px"
	 y="0px" viewBox="0 0 64 64" enable-background="new 0 0 64 64" xml:space="preserve">
<g>
	<path fill="#205DA5" stroke="#205DA5" stroke-width="3" stroke-miterlimit="10" d="M27.9,10L27.9,10c0.8,0.8,0.8,2,0,2.8l-3.6,3.5
		c0,0-0.1,0.1-0.1,0.1l-2.8,2.4l0.1,0.2l5.6-0.3c0,0,0.1,0,0.1,0h2.9c10.8,0,19.9,6,19.9,17.9c0,11.1-8,17.1-17.8,17.9
		c-1.1,0.1-2.1-0.8-2.1-2v0c0-1,0.8-1.9,1.8-2c7.7-0.6,14.4-4.8,14.4-13.9c0-9.8-7.8-14-16.2-14h-2.9c0,0-0.1,0-0.1,0l-5.6-0.3
		l-0.1,0.2l2.8,2.4c0,0,0.1,0.1,0.1,0.1l3.6,3.5c0.8,0.8,0.8,2,0,2.8l0,0c-0.8,0.8-2,0.7-2.8,0L16,22.1c-0.8-0.8-0.8-2,0-2.8
		l9.2-9.2C25.9,9.3,27.2,9.3,27.9,10z"/>
</g>
</svg>
