<?xml version="1.0" encoding="utf-8"?>
<!-- Generator: Adobe Illustrator 27.9.5, SVG Export Plug-In . SVG Version: 9.03 Build 54986)  -->
<svg version="1.1" id="_x32_6_x5F_autoscaling" xmlns="http://www.w3.org/2000/svg" xmlns:xlink="http://www.w3.org/1999/xlink"
	 x="0px" y="0px" viewBox="0 0 64 64" enable-background="new 0 0 64 64" xml:space="preserve">
<g>
	<path fill="none" stroke="#D72723" stroke-width="2" stroke-linecap="round" stroke-linejoin="round" stroke-miterlimit="10" d="
		M8.6,46.2c3.2,0,5.9,0.1,7.3-0.6c8.4-4.1,10.6-13.1,10.9-24.9c0.2-8.5,8.6-12.8,10.4,0.6c1.1,8,3.3,14.6,4.8,17.2
		c1.5,2.6,4.9,6.4,13.3,8.1"/>
	<path fill="#003D8B" stroke="#003D8B" stroke-width="2" stroke-miterlimit="10" d="M37.8,43.9c-0.4-0.4-1.2-0.4-1.6,0l-2,1.9
		c0,0,0,0-0.1,0.1l-1.4,1.5l-0.1,0l0.2-3c0,0,0,0,0-0.1V27.5c0,0,0,0,0,0v-3.9c0,0,0,0,0-0.1l-0.2-3l0.1,0l1.4,1.5c0,0,0,0,0.1,0.1
		l2,1.9c0.4,0.4,1.2,0.4,1.6,0l0,0c0.4-0.4,0.4-1.1,0-1.5l-5.3-5c-0.4-0.4-1.2-0.4-1.6,0l-5.3,5c-0.4,0.4-0.4,1.1,0,1.5l0,0
		c0.4,0.4,1.2,0.4,1.6,0l2-1.9c0,0,0,0,0.1-0.1l1.4-1.5l0.1,0l-0.2,3c0,0,0,0,0,0.1v9.1c0,0,0,0,0,0v11.6c0,0,0,0,0,0.1l0.2,3
		l-0.1,0l-1.4-1.5c0,0,0,0-0.1-0.1l-2-1.9c-0.4-0.4-1.2-0.4-1.6,0l0,0c-0.4,0.4-0.4,1.1,0,1.5l5.3,5c0.4,0.4,1.2,0.4,1.6,0l5.3-5
		C38.2,45,38.2,44.3,37.8,43.9L37.8,43.9z"/>
</g>
<g>
	<g>
		<polyline fill="none" stroke="#003D8B" stroke-width="2" stroke-linecap="round" stroke-miterlimit="10" points="56.4,50.9 
			56.4,54.9 52.4,54.9 		"/>
		
			<line fill="none" stroke="#003D8B" stroke-width="2" stroke-linecap="round" stroke-miterlimit="10" stroke-dasharray="8.174,8.174" x1="44.3" y1="54.9" x2="15.7" y2="54.9"/>
		<polyline fill="none" stroke="#003D8B" stroke-width="2" stroke-linecap="round" stroke-miterlimit="10" points="11.6,54.9 
			7.6,54.9 7.6,50.9 		"/>
		
			<line fill="none" stroke="#003D8B" stroke-width="2" stroke-linecap="round" stroke-miterlimit="10" stroke-dasharray="7.542,7.542" x1="7.6" y1="43.3" x2="7.6" y2="16.9"/>
		<polyline fill="none" stroke="#003D8B" stroke-width="2" stroke-linecap="round" stroke-miterlimit="10" points="7.6,13.1 
			7.6,9.1 11.6,9.1 		"/>
		
			<line fill="none" stroke="#003D8B" stroke-width="2" stroke-linecap="round" stroke-miterlimit="10" stroke-dasharray="8.174,8.174" x1="19.7" y1="9.1" x2="48.3" y2="9.1"/>
		<polyline fill="none" stroke="#003D8B" stroke-width="2" stroke-linecap="round" stroke-miterlimit="10" points="52.4,9.1 
			56.4,9.1 56.4,13.1 		"/>
		
			<line fill="none" stroke="#003D8B" stroke-width="2" stroke-linecap="round" stroke-miterlimit="10" stroke-dasharray="7.542,7.542" x1="56.4" y1="20.7" x2="56.4" y2="47.1"/>
	</g>
</g>
</svg>
