<?xml version="1.0" encoding="utf-8"?>
<!-- Generator: Adobe Illustrator 27.9.5, SVG Export Plug-In . SVG Version: 9.03 Build 54986)  -->
<svg version="1.1" id="_x33_0_x5F_marker" xmlns="http://www.w3.org/2000/svg" xmlns:xlink="http://www.w3.org/1999/xlink" x="0px"
	 y="0px" viewBox="0 0 64 64" enable-background="new 0 0 64 64" xml:space="preserve">
<g>
	
		<line fill="none" stroke="#003080" stroke-width="3" stroke-linecap="round" stroke-miterlimit="10" x1="25.9" y1="44.4" x2="25.9" y2="48.1"/>
	
		<line fill="none" stroke="#003080" stroke-width="3" stroke-linecap="round" stroke-miterlimit="10" x1="25.9" y1="35" x2="25.9" y2="38.7"/>
	
		<line fill="none" stroke="#003080" stroke-width="3" stroke-linecap="round" stroke-miterlimit="10" x1="25.9" y1="25.7" x2="25.9" y2="29.4"/>
	
		<line fill="none" stroke="#003080" stroke-width="3" stroke-linecap="round" stroke-miterlimit="10" x1="25.9" y1="16.3" x2="25.9" y2="20.1"/>
	
		<line fill="none" stroke="#003080" stroke-width="3" stroke-linecap="round" stroke-miterlimit="10" x1="25.9" y1="7" x2="25.9" y2="10.7"/>
	
		<line fill="none" stroke="#0056A3" stroke-width="3" stroke-linecap="round" stroke-miterlimit="10" x1="50.2" y1="17.5" x2="46.5" y2="17.5"/>
	
		<line fill="none" stroke="#0056A3" stroke-width="3" stroke-linecap="round" stroke-miterlimit="10" x1="50.2" y1="24.5" x2="46.5" y2="24.5"/>
	
		<line fill="none" stroke="#0056A3" stroke-width="3" stroke-linecap="round" stroke-miterlimit="10" x1="50.2" y1="31.4" x2="46.5" y2="31.4"/>
	<path fill="none" stroke="#0056A3" stroke-width="3" stroke-miterlimit="10" d="M55.4,38.7H41.3c-1.1,0-2-0.9-2-2V12
		c0-1.1,0.9-2,2-2h14.1c1.1,0,2,0.9,2,2v24.7C57.4,37.8,56.5,38.7,55.4,38.7z"/>
</g>
<line fill="none" stroke="#007CCA" stroke-width="3" stroke-linecap="round" stroke-miterlimit="10" x1="11.6" y1="7" x2="11.6" y2="57"/>
<line fill="none" stroke="#007CCA" stroke-width="3" stroke-linecap="round" stroke-miterlimit="10" x1="7.7" y1="10.6" x2="11.4" y2="10.6"/>
<line fill="none" stroke="#007CCA" stroke-width="3" stroke-linecap="round" stroke-miterlimit="10" x1="7.7" y1="24.7" x2="11.4" y2="24.7"/>
<line fill="none" stroke="#007CCA" stroke-width="3" stroke-linecap="round" stroke-miterlimit="10" x1="7.7" y1="38.4" x2="11.4" y2="38.4"/>
<line fill="none" stroke="#007CCA" stroke-width="3" stroke-linecap="round" stroke-miterlimit="10" x1="39.3" y1="52.4" x2="39.3" y2="56.1"/>
<line fill="none" stroke="#007CCA" stroke-width="3" stroke-linecap="round" stroke-miterlimit="10" x1="25.7" y1="52.4" x2="25.7" y2="56.1"/>
<line fill="none" stroke="#007CCA" stroke-width="3" stroke-linecap="round" stroke-miterlimit="10" x1="53.4" y1="52.4" x2="53.4" y2="56.1"/>
<line fill="none" stroke="#007CCA" stroke-width="3" stroke-linecap="round" stroke-miterlimit="10" x1="6.5" y1="52.3" x2="57.5" y2="52.3"/>
</svg>
